:version 1.10
:name ASF
:units
  mass 1
  length 1
  angle deg
:documentation
  ASF file generated by Kaydara
:root
  axis xyz
  order  tx ty tz rx ry rz
  position 0 0 0
  orientation 0 0 0
:bonedata
  begin
    id 1
    name LeftUpLegDummy
    direction 1 -2.30186e-007 -8.31532e-007
    length 2.93387
    axis 0 0 0 xyz
  end
  begin
    id 2
    name LeftUpLeg
    direction -1.82929e-007 -1 -1.48925e-009
    length 17.3336
    axis -3.48766 0.00143442 -0.000521554 xyz
    dof rx ry rz
  end
  begin
    id 3
    name LeftLeg
    direction -1.82929e-007 -1 -5.23717e-011
    length 14.9995
    axis 3.68178 -0.00654042 -0.000282425 xyz
    dof rx ry rz
  end
  begin
    id 4
    name LeftFoot
    direction 8.31532e-007 -4.54534e-011 1
    length 6.74421
    axis 1.87234e-006 4.66016e-005 -5.96866e-006 xyz
    dof rx ry rz
  end
  begin
    id 5
    name LeftToes
    direction 0.00818058 -0.00485161 0.999955
    length 3.85048
    axis 1.06247e-005 4.65869e-005 -5.96999e-006 xyz
    dof rx ry rz
  end
  begin
    id 6
    name SpineDummy
    direction -5.8607e-008 0.943407 -0.331637
    length 5.93572
    axis 0 0 0 xyz
  end
  begin
    id 7
    name Spine
    direction -1.04988e-007 0.999988 0.00495137
    length 10.1015
    axis -0.001389 0.000121417 6.61666e-006 xyz
    dof rx ry rz
  end
  begin
    id 8
    name Spine1
    direction 0 0 0
    length 0
    axis -0.001389 0.00012144 6.56766e-006 xyz
    dof rx ry rz
  end
  begin
    id 9
    name RightShoulderDummy
    direction -0.98348 0.17941 -0.0240696
    length 3.59882
    axis -0.001389 0.00012144 6.56766e-006 xyz
  end
  begin
    id 10
    name RightShoulder
    direction -0.978693 0.204882 0.0135597
    length 2.70001
    axis 0.215806 0.000203631 -0.00679732 xyz
    dof rx ry rz
  end
  begin
    id 11
    name RightArm
    direction -1 3.85509e-006 8.31394e-007
    length 10.2459
    axis -23.2009 -0.134239 -0.964098 xyz
    dof rx ry rz
  end
  begin
    id 12
    name RightForeArm
    direction -1 3.85569e-006 8.3129e-007
    length 8.16799
    axis -9.92322 0.0658061 0.17887 xyz
    dof rx ry rz
  end
  begin
    id 13
    name RightHand
    direction -0.992843 -0.0414604 0.112003
    length 5.28593
    axis -0.00960638 0.00330669 -0.185225 xyz
    dof rx ry rz
  end
  begin
    id 14
    name LeftShoulder1Dummy
    direction 0.983523 0.179172 -0.0240748
    length 3.59866
    axis -0.001389 0.00012144 6.56766e-006 xyz
  end
  begin
    id 15
    name LeftShoulder1
    direction 0.978627 0.205195 0.0135605
    length 2.70019
    axis -0.001389 0.00012144 6.57583e-006 xyz
    dof rx ry rz
  end
  begin
    id 16
    name LeftArm
    direction 1 3.51895e-006 -8.60188e-007
    length 10.2459
    axis -23.1894 0.134785 0.967513 xyz
    dof rx ry rz
  end
  begin
    id 17
    name LeftForeArm
    direction 1 3.51921e-006 -7.32029e-007
    length 8.16799
    axis -9.91835 -0.0656957 -0.177789 xyz
    dof rx ry rz
  end
  begin
    id 18
    name LeftHand
    direction 0.992938 -0.0411636 0.11126
    length 5.32135
    axis -0.00960237 -0.00340661 0.185177 xyz
    dof rx ry rz
  end
  begin
    id 19
    name HEadDummy
    direction 1.01974e-006 0.999861 -0.016675
    length 2.99946
    axis -0.001389 0.00012144 6.56766e-006 xyz
  end
  begin
    id 20
    name HEad
    direction -0.0222689 0.980941 0.193023
    length 5.12695
    axis -0.001389 0.00012144 6.56766e-006 xyz
    dof rx ry rz
  end
  begin
    id 21
    name RightUpLegDummy
    direction -1 2.30186e-007 8.31532e-007
    length 2.93387
    axis 0 0 0 xyz
  end
  begin
    id 22
    name RightUpLeg
    direction -1.82966e-007 -1 1.56832e-007
    length 17.3336
    axis -3.4909 -0.000906625 0.00028951 xyz
    dof rx ry rz
  end
  begin
    id 23
    name RightLeg
    direction -1.82786e-007 -1 -1.80317e-007
    length 14.9995
    axis 3.68513 0.0193739 -0.131021 xyz
    dof rx ry rz
  end
  begin
    id 24
    name RightFoot
    direction 8.31721e-007 -4.63324e-011 1
    length 6.74421
    axis 4.81691e-005 -0.120479 -0.188785 xyz
    dof rx ry rz
  end
  begin
    id 25
    name RightToes
    direction 0.00124746 -0.014064 0.9999
    length 3.85082
    axis 0.000481921 0.542163 -0.142575 xyz
    dof rx ry rz
  end
:hierarchy
  begin
    root LeftUpLegDummy SpineDummy RightUpLegDummy
    LeftUpLegDummy LeftUpLeg
    LeftUpLeg LeftLeg
    LeftLeg LeftFoot
    LeftFoot LeftToes
    SpineDummy Spine
    Spine Spine1
    Spine1 RightShoulderDummy LeftShoulder1Dummy HEadDummy
    RightShoulderDummy RightShoulder
    RightShoulder RightArm
    RightArm RightForeArm
    RightForeArm RightHand
    LeftShoulder1Dummy LeftShoulder1
    LeftShoulder1 LeftArm
    LeftArm LeftForeArm
    LeftForeArm LeftHand
    HEadDummy HEad
    RightUpLegDummy RightUpLeg
    RightUpLeg RightLeg
    RightLeg RightFoot
    RightFoot RightToes
  end

:SAMPLES-PER-SECOND 30
:FULLY-SPECIFIED
:DEGREES
180
root  -15.2615 34.4232 46.7464 5.61179 13.7523 -3.39423
LeftUpLeg  -14.8238 13.7406 15.1464
LeftLeg  21.1045 31.5198 9.31488
LeftFoot  14.136 -1.09725 8.83232
LeftToes  -12.5996 1.61378e-006 8.80029e-008
Spine  3.63344 -1.3656 2.18562
Spine1  6.85743 -3.0151 4.18102
RightShoulder  0.172836 8.44529 10.0832
RightArm  -43.335 -13.7208 63.1449
RightForeArm  32.6601 10.9213 1.94557
RightHand  0.542952 -8.29211 -7.10397
LeftShoulder1  0.0474535 -0.0935218 -7.34945
LeftArm  4.98902 -10.8811 -84.8115
LeftForeArm  32.316 -31.8053 -6.26923
LeftHand  0.0170369 0.715667 2.33471
HEad  -2.35794 2.7153 -7.53207
RightUpLeg  -12.9354 -14.2881 5.87253
RightLeg  12.8589 2.19864 0.356106
RightFoot  -1.64412 -0.00696306 -0.107771
RightToes  -24.0815 -0.10536 -0.208801
181
root  -15.4915 34.4219 46.8949 5.42299 12.6573 -2.64154
LeftUpLeg  -16.0032 16.5203 13.7818
LeftLeg  24.3723 31.6586 11.2098
LeftFoot  13.104 -0.968767 8.41972
LeftToes  -12.6201 1.61378e-006 8.80029e-008
Spine  3.67137 -0.797688 1.97999
Spine1  6.88937 -1.68338 3.5105
RightShoulder  0.208111 9.09144 9.61741
RightArm  -43.2201 -8.85813 61.6447
RightForeArm  32.5031 11.3094 2.01651
RightHand  0.506846 -8.4262 -6.49716
LeftShoulder1  0.0486509 -0.0360471 -7.4142
LeftArm  5.2848 -9.49755 -85.5641
LeftForeArm  31.0855 -34.4351 -6.93758
LeftHand  0.0156672 0.857893 1.70869
HEad  -2.63113 3.16833 -7.84194
RightUpLeg  -12.3881 -13.153 5.41069
RightLeg  12.9082 2.1716 0.353647
RightFoot  -2.13629 -0.0093321 -0.123008
RightToes  -23.7263 -0.102833 -0.206087
182
root  -15.662 34.4132 47.0147 5.1446 11.9989 -2.04599
LeftUpLeg  -17.334 17.5424 12.4439
LeftLeg  26.5231 24.4804 9.8979
LeftFoot  9.68251 -0.392446 4.63099
LeftToes  -12.149 1.61378e-006 8.80029e-008
Spine  3.78856 -0.259512 1.83714
Spine1  7.05039 -0.406465 2.97964
RightShoulder  0.230791 9.16097 9.20614
RightArm  -41.3492 -4.10624 60.2569
RightForeArm  31.6389 12.3652 2.21088
RightHand  0.547114 -7.99421 -7.4416
LeftShoulder1  0.049867 -0.204043 -7.67167
LeftArm  5.35857 -8.03185 -85.5034
LeftForeArm  30.8273 -36.6113 -7.52384
LeftHand  0.00675206 0.50687 0.795114
HEad  -2.77603 3.24448 -7.97733
RightUpLeg  -11.7349 -13.1822 5.019
RightLeg  12.7666 2.91224 0.466507
RightFoot  -2.51227 -0.0119001 -0.165205
RightToes  -24.081 -0.102363 -0.205705
183
root  -15.7733 34.4025 47.0752 4.87938 11.6723 -1.66393
LeftUpLeg  -18.9209 16.2013 11.226
LeftLeg  28.4538 15.8162 7.1654
LeftFoot  5.40283 -0.074497 1.57877
LeftToes  -9.77594 1.61378e-006 8.80029e-008
Spine  3.9306 0.24778 1.8001
Spine1  7.26423 0.797843 2.69707
RightShoulder  0.239181 8.89857 8.79182
RightArm  -39.1967 0.265844 58.8637
RightForeArm  30.5939 14.0528 2.52479
RightHand  0.570061 -7.32657 -8.50855
LeftShoulder1  0.0506407 -0.371405 -7.97461
LeftArm  5.15832 -6.84959 -85.0477
LeftForeArm  31.4199 -37.4872 -7.76909
LeftHand  -0.000446535 -0.240837 -0.162272
HEad  -2.88512 2.94386 -7.98036
RightUpLeg  -11.4418 -14.112 4.78572
RightLeg  13.0677 4.18176 0.691686
RightFoot  -2.983 -0.016266 -0.247218
RightToes  -24.0298 -0.103457 -0.206243
184
root  -15.8464 34.3972 47.1202 4.52196 11.4203 -1.55308
LeftUpLeg  -20.472 13.6145 10.1921
LeftLeg  30.4051 8.7756 4.38855
LeftFoot  1.44963 -0.00218005 0.172312
LeftToes  -9.02823 1.61378e-006 8.80029e-008
Spine  4.08941 0.760174 1.89469
Spine1  7.55221 1.97997 2.73975
RightShoulder  0.234619 8.4591 8.33365
RightArm  -37.2455 4.02695 57.437
RightForeArm  29.2253 16.3011 2.95065
RightHand  0.550672 -6.77487 -8.90447
LeftShoulder1  0.0509591 -0.478067 -8.14938
LeftArm  4.51642 -5.93182 -84.5079
LeftForeArm  31.8304 -36.7078 -7.55001
LeftHand  -0.00275542 -0.731502 -0.577624
HEad  -2.81675 2.46544 -8.01587
RightUpLeg  -11.0796 -14.2971 4.7062
RightLeg  13.2693 4.64345 0.784557
RightFoot  -3.24717 -0.0165429 -0.283124
RightToes  -24.1019 -0.105621 -0.2078
185
root  -15.9222 34.4288 47.1637 4.23997 11.2268 -1.21364
LeftUpLeg  -21.4725 10.2186 8.82281
LeftLeg  31.006 5.17631 2.66505
LeftFoot  -0.0311828 -1.33253e-005 -0.0489715
LeftToes  -11.4474 1.61378e-006 8.80029e-008
Spine  4.21351 1.16999 1.94236
Spine1  7.81299 2.90589 2.78786
RightShoulder  0.22019 8.14069 7.7756
RightArm  -35.1622 6.93194 56.1802
RightForeArm  26.961 19.0647 3.48858
RightHand  0.525666 -6.5703 -8.75993
LeftShoulder1  0.0513149 -0.616687 -8.23437
LeftArm  3.15143 -5.07994 -83.5879
LeftForeArm  31.5655 -34.3654 -6.91903
LeftHand  -0.00308103 -0.551732 -0.355229
HEad  -2.59643 1.9801 -7.97913
RightUpLeg  -10.5356 -13.6321 4.38414
RightLeg  13.0071 4.2152 0.692641
RightFoot  -3.21793 -0.0183151 -0.246364
RightToes  -24.3012 -0.108358 -0.210474
